<?xml version="1.0" standalone="no"?>
<!DOCTYPE svg PUBLIC "-//W3C//DTD SVG 20010904//EN"
 "http://www.w3.org/TR/2001/REC-SVG-20010904/DTD/svg10.dtd">
<svg version="1.0" xmlns="http://www.w3.org/2000/svg"
 width="143.000000pt" height="125.000000pt" viewBox="0 0 143.000000 125.000000"
 preserveAspectRatio="xMidYMid meet">
<metadata>
Created by potrace 1.10, written by Peter Selinger 2001-2011
</metadata>
<g transform="translate(0.000000,125.000000) scale(0.100000,-0.100000)"
fill="#000000" stroke="none">
<path d="M358 1243 c200 -2 524 -2 720 0 196 1 33 2 -363 2 -396 0 -557 -1
-357 -2z"/>
<path d="M592 813 c-122 -126 -232 -246 -244 -268 -30 -55 -29 -145 0 -206 33
-68 244 -271 298 -287 51 -15 97 -15 149 -1 55 16 205 161 205 199 0 30 -27
60 -54 60 -9 0 -53 -34 -96 -75 -76 -72 -81 -75 -127 -75 l-49 0 -117 118
c-107 109 -117 122 -117 156 0 55 18 81 133 194 97 95 107 102 144 102 45 0
90 -28 163 -104 64 -66 120 -62 120 9 0 26 -14 45 -79 108 -52 51 -89 79 -110
83 -17 4 -31 9 -31 13 0 3 27 33 60 65 64 64 71 85 40 116 -41 41 -54 31 -288
-207z m252 168 c4 -5 -14 -33 -39 -62 -52 -61 -56 -90 -18 -116 46 -31 163
-146 163 -160 0 -24 -20 -13 -85 47 -95 88 -143 100 -221 55 -65 -38 -232
-227 -240 -271 -12 -64 11 -109 104 -207 117 -121 154 -147 209 -147 56 0 72
9 156 82 37 33 70 58 73 55 13 -13 -11 -50 -67 -101 -85 -77 -166 -93 -249
-51 -34 18 -221 208 -242 248 -23 41 -24 137 -2 180 16 31 431 457 446 457 4
0 9 -4 12 -9z"/>
<path d="M650 480 c-25 -25 -26 -52 -2 -73 16 -15 49 -17 250 -17 l232 0 15
24 c18 27 7 69 -20 80 -9 3 -115 6 -236 6 -206 0 -220 -1 -239 -20z m450 -40
c0 -6 -75 -10 -205 -10 -130 0 -205 4 -205 10 0 6 75 10 205 10 130 0 205 -4
205 -10z"/>
</g>
</svg>
